<?xml version="1.0" encoding="iso-8859-1"?>
<!-- Uploaded to: SVG Repo, www.svgrepo.com, Generator: SVG Repo Mixer Tools -->
<svg fill="#000000" height="800px" width="800px" version="1.1" id="Layer_1" xmlns="http://www.w3.org/2000/svg" xmlns:xlink="http://www.w3.org/1999/xlink" 
	 viewBox="0 0 511.998 511.998" xml:space="preserve">
<g>
	<g>
		<path d="M479.84,167.011l-22.426-96.108c-4.777-20.477-19.164-37.61-38.483-45.831c-32.438-13.804-72.716-18.778-75.36-19.094
			c-6.113-0.834-126.254-16.73-215.497,7.023c-10.826,2.882-20.765,8.651-28.742,16.679l-0.706,0.713
			c-21.907,22.188-35.741,50.26-40.005,81.18c-2.148,15.574-1.759,31.115,1.077,46.197c-5.694,25.419-11.688,27.771-11.736,27.782
			c-0.014,0-1.222-0.087-3.702-2.461c-3.307-3.167-8.553-3.053-11.717,0.252c-3.166,3.305-3.054,8.552,0.253,11.717
			c5.687,5.45,10.93,7.071,15.154,7.071c1.833,0,3.476-0.306,4.879-0.737c6.006-1.843,11.004-6.938,15.198-15.633
			c2.075,5.03,4.43,9.976,7.093,14.809c27.533,49.959,59.44,97.294,94.927,140.851c-15.292,18.638-23.66,41.85-23.66,66.156
			c0,57.578,46.844,104.422,104.422,104.422s104.422-46.844,104.422-104.422c0-27.162-10.184-52.528-28.792-72.015
			c25.058-72.838,27.487-152.447,27.679-172.923l20.654-11.915l44.839,23.353l4.848,82.4c0.26,4.42-1.27,8.628-4.306,11.849
			c-3.038,3.221-7.148,4.995-11.576,4.995h-7.487c-2.73,0-5.285,1.345-6.832,3.596c-1.545,2.251-1.883,5.118-0.903,7.666
			l11.05,28.73c1.231,3.2,4.305,5.313,7.735,5.313c24.36,0,45.794-17.277,50.97-41.079l16.978-78.101
			C482.396,188.817,482.311,177.601,479.84,167.011z M250.807,495.426c-37.384,0-69.368-23.482-82.03-56.463
			c24.311,15.657,52.718,24.098,82.03,24.098c29.311,0,57.719-8.441,82.03-24.098C320.175,471.944,288.191,495.426,250.807,495.426z
			 M338.654,407.579c0,2.244-0.113,4.462-0.279,6.664c-24.408,20.816-55.376,32.243-87.569,32.243
			c-32.193,0-63.161-11.427-87.569-32.243c-0.166-2.202-0.279-4.42-0.279-6.664c0-5.984,0.619-11.884,1.791-17.639
			c25.171,17.346,55.282,26.788,86.056,26.788c30.787,0,60.911-9.45,86.089-26.811C338.055,395.659,338.654,401.566,338.654,407.579
			z M331.728,373.227c-23.237,17.404-51.744,26.927-80.921,26.927c-29.156,0-57.643-9.51-80.872-26.888
			c3.102-7.308,7.199-14.198,12.229-20.489c0.409,0.062,0.82,0.104,1.238,0.104c0.62,0,1.244-0.07,1.864-0.212l57.46-13.26
			c2.777-0.641,5.029-2.663,5.964-5.354c0.936-2.692,0.423-5.674-1.357-7.899l-4.828-6.035c2.749-0.259,5.521-0.39,8.302-0.39
			c5.444,0,10.82,0.507,16.093,1.483c-0.264,0.259-0.519,0.525-0.788,0.779c-2.177,2.055-3.075,5.125-2.351,8.029
			c0.724,2.905,2.958,5.193,5.844,5.987l44.2,12.155c0.65,0.179,1.304,0.266,1.951,0.285
			C322.526,355.856,327.901,364.208,331.728,373.227z M232.213,304.822c-9.128-21.026-24.412-63.197-18.531-83.295
			c0.792-2.706,1.292-5.476,1.506-8.258l43.48-17.243c1.537,10.015,6.371,19.385,13.944,26.469l8.315,7.779
			c5.581,5.22,8.39,12.579,7.71,20.191l-2.756,30.781c-0.81,9.041-3.533,17.709-7.891,25.495
			c-8.813-2.375-17.921-3.584-27.182-3.584C244.54,303.157,238.313,303.72,232.213,304.822z M310.775,330.141l-23.955-6.588
			c8.807-11.839,14.235-25.941,15.567-40.83l2.756-30.781c1.14-12.732-3.559-25.041-12.893-33.773l-8.315-7.779
			c-6.926-6.479-10.271-15.952-8.948-25.342l8.337-59.193c0.639-4.533-2.518-8.724-7.051-9.363
			c-4.524-0.636-8.725,2.518-9.363,7.051l-7.665,54.421l-46.379,18.394c-0.174-0.471-0.351-0.94-0.544-1.406l-25.677-62.359
			c-1.744-4.232-6.589-6.252-10.819-4.507c-4.232,1.743-6.25,6.586-4.508,10.819l25.678,62.359
			c2.014,4.892,2.29,10.435,0.777,15.608c-9.505,32.483,19.047,94.464,22.334,101.426c0.276,0.583,0.62,1.134,1.023,1.638
			l5.029,6.285l-39.643,9.148c-36.314-43.997-68.894-92.015-96.883-142.8c-13.318-24.166-18.364-51.391-14.593-78.731
			c3.772-27.349,16.006-52.176,35.383-71.803l0.662-0.667c5.914-5.951,13.262-10.221,21.25-12.348
			c65.044-17.312,149.945-12.398,188.462-8.84c-4.107,2.701-7.588,6.336-10.097,10.658l-13.884,23.907
			c-5.633,9.7-5.742,21.812-0.285,31.611l41.019,73.647C337.48,173.983,335.967,256.793,310.775,330.141z M463.888,195.924
			l-16.978,78.102c-3.133,14.411-15.001,25.317-29.249,27.589l-4.627-12.028c7.275-1.018,14.091-4.496,19.175-9.888
			c6.112-6.482,9.317-15.3,8.795-24.193l-4.211-71.587l5.398,3.175c1.319,0.777,2.767,1.146,4.195,1.146
			c2.84,0,5.607-1.461,7.152-4.086c2.32-3.945,1.003-9.025-2.941-11.345l-18.785-11.05c-0.075-0.044-0.154-0.078-0.23-0.12
			c-0.05-0.027-0.094-0.061-0.144-0.087l-47.93-24.963l3.705-29.643c0.568-4.542-2.654-8.683-7.196-9.251
			c-4.548-0.57-8.683,2.653-9.252,7.196l-3.908,31.269l-17.871,10.31l-37.971-68.178c-2.629-4.718-2.576-10.552,0.136-15.221
			l13.884-23.907c2.183-3.758,5.722-6.349,9.964-7.295c4.245-0.946,8.544-0.103,12.117,2.372l27.153,18.817
			c3.761,2.608,8.925,1.67,11.532-2.092c2.607-3.763,1.672-8.925-2.092-11.533l-18.898-13.095
			c13.972,2.83,32.004,7.336,47.632,13.987c14.472,6.158,25.25,18.998,28.832,34.346l22.426,96.107
			C465.615,178.988,465.68,187.684,463.888,195.924z"/>
	</g>
</g>
<g>
	<g>
		<path d="M431.79,101.535l-11.05-4.42c-4.248-1.701-9.073,0.366-10.773,4.617c-1.7,4.25,0.368,9.073,4.618,10.773l11.05,4.42
			c1.009,0.403,2.05,0.594,3.075,0.594c3.289,0,6.401-1.971,7.697-5.212C438.106,108.058,436.039,103.235,431.79,101.535z"/>
	</g>
</g>
</svg>